<svg id="Layer_-1" data-name="Layer_-1" xmlns="http://www.w3.org/2000/svg" viewBox="0 0 588 467">
  <defs>
    <style>
      .cls-1 {
        fill: #000b76;
        stroke: #000;
        stroke-miterlimit: 10;
      }
    </style>
  </defs>
  <title>EG</title>
  <path class="cls-1" d="M713.42,406.12V437.9H824.13v95.34s-121.68,19-199-6.22c-77.28-25.56-99.75-76.34-99.75-76.34s-6.58-15.89-4.38-38h81.66V377.79H530.36c7.13-22.8,13.7-38.34,49.88-53.89,0,0,33.43-25.56,110.71-31.78S857,304.9,857,304.9l11-31.78s-11-6.22-66.32-12.78c-55.36-6.22-132.64,0-132.64,0s-88.79,6.22-121.68,31.78c0,0-66.32,31.78-77.28,50.78a197.48,197.48,0,0,0-17,34.89H364.84V270H586.26V238.23H375.8V136.67H586.26L591.75,108H304V412.68H444.86c-1.1,16.93,2.19,34.89,14.25,50.78,0,0,11,44.56,66.32,69.78,55.36,25.56,155.11,38,155.11,38s44.39,6.22,99.75,0,110.71-19,110.71-19V406.12H713.42Z" transform="translate(-303.5 -107.5)"/>
</svg>
