<svg xmlns="http://www.w3.org/2000/svg" viewBox="0 0 145 138">
  <defs>
    <style>
      .cls-1 {
        fill: #56b948;
      }

      .cls-1, .cls-2, .cls-3, .cls-4 {
        stroke: #231f20;
        stroke-miterlimit: 10;
      }

      .cls-2 {
        fill: #1e1f20;
      }

      .cls-3 {
        fill: #383838;
      }

      .cls-4 {
        fill: #8a8a8a;
      }

      .cls-5 {
        font-size: 12px;
        fill: #231f20;
        font-family: MyriadPro-Regular, Myriad Pro;
      }

      .cls-6 {
        letter-spacing: 0em;
      }

      .cls-7 {
        letter-spacing: 0.01em;
      }

      .cls-8 {
        letter-spacing: -0.01em;
      }

      .cls-9 {
        letter-spacing: 0em;
      }

      .cls-10 {
        letter-spacing: -0.08em;
      }

      .cls-11 {
        letter-spacing: 0em;
      }

      .cls-12 {
        letter-spacing: 0em;
      }
    </style>
  </defs>
  <title>Gamers-Paradise_Logo</title>
  <g id="B">
    <g>
      <g>
        <ellipse class="cls-1" cx="72.5" cy="69" rx="72" ry="68.5"/>
        <path class="cls-2" d="M352.43,252.61l-9.18,25.84s-5.59,23.18-5.59,30,1.51,12,5.21,15.5,10.33,0,10.33,0l12.75-14.8s3.57-4.89,8-5,38.63.14,38.63.14a11.52,11.52,0,0,1,9.18,3.35c3.82,4,10.58,11.73,10.58,11.73s5.1,7.85,9.56,6.16,5.69-1.27,7.65-6.16,2-14.1,2-14.1-1.57-13-3.1-18.71-5.86-18.85-5.86-18.85l-4.84-13.41a6.9,6.9,0,0,0-2.93-3.35,3.34,3.34,0,0,1-1-2.51c0-1.68-4.33-4.47-4.33-4.47l-6.76-2.37s-6.5-3.35-10.2,0a7,7,0,0,0-2.42,1.4l-30.73.7s-1.66-3.47-6.63-3.47S357,245.91,357,245.91s-2.42,3.35-1.91,4.19S352.43,252.61,352.43,252.61Z" transform="translate(-323.5 -219.5)"/>
        <path class="cls-3" d="M366.07,259.31s-5.48.42-6,7.26,6,7.26,6,7.26a5.53,5.53,0,0,0,6.25-5.59C372.7,262,371.55,261,366.07,259.31Z" transform="translate(-323.5 -219.5)"/>
        <path class="cls-3" d="M410.06,278.31s-4.59.3-6,4.62-.13,5.85,1.27,8.51a6.2,6.2,0,0,0,6.88,1.26c4-1.82,4.33-6.27,4.33-6.91s-.25-5.24-2.68-6.08S413.12,278.72,410.06,278.31Z" transform="translate(-323.5 -219.5)"/>
        <path class="cls-3" d="M380.35,275.79s-5.48-.84-8,6.28.32,10.19,2.1,13,7.65,2.23,10.33,1.12,4.84-5.31,4.84-5.31,2.29-5.87-1.91-12.57C387.75,278.31,383.66,275.21,380.35,275.79Z" transform="translate(-323.5 -219.5)"/>
        <path class="cls-4" d="M380.84,278.31h-1.61a1.32,1.32,0,0,0-1.15,1v4h-3.41a1.62,1.62,0,0,0-1.21,1.36v3.14s.25,1.4,1,1.61H378l.06,3.82a1.66,1.66,0,0,0,1.4,1.31h2.74a1.68,1.68,0,0,0,1.18-1.5v-3.74l3.54.07A1.85,1.85,0,0,0,388,288v-3.14s-.19-1.54-1.34-1.57-3.25,0-3.25,0l0-3.63a1.57,1.57,0,0,0-1.63-1.54C380.22,278.17,380.84,278.31,380.84,278.31Z" transform="translate(-323.5 -219.5)"/>
        <path class="cls-3" d="M386.63,263.61c-1.69.59-2.1,1.08-2.26,3.28,0,0,.67,2.09,2,2.2a2.51,2.51,0,0,0,2.45-1.15,4,4,0,0,0,.16-3.18C388.57,264,386.63,263.61,386.63,263.61Z" transform="translate(-323.5 -219.5)"/>
        <path class="cls-3" d="M403.46,263.61a2.69,2.69,0,0,0-2,1.71,3,3,0,0,0,.45,3,2.66,2.66,0,0,0,3,.52,2.84,2.84,0,0,0,1.15-2.5,3.18,3.18,0,0,0-1-2.35A3.09,3.09,0,0,0,403.46,263.61Z" transform="translate(-323.5 -219.5)"/>
        <path class="cls-1" d="M393.8,246.25a6.58,6.58,0,0,0-4,3.32,7.2,7.2,0,0,0,.45,5.83c1.66,2.69,3.67,2.69,4.72,2.62a5.23,5.23,0,0,0,3.7-2,6.26,6.26,0,0,0,1.24-3.88c-.1-1.28-.06-2.78-1.4-4a9.83,9.83,0,0,0-2.93-1.92Z" transform="translate(-323.5 -219.5)"/>
        <path class="cls-1" d="M424,253.48a4.38,4.38,0,0,0-2.55,1.89c-.57,1.33-1.18,2.72-.35,4.29a5.05,5.05,0,0,0,2.9,2.51,4.48,4.48,0,0,0,2.68-.66,5.3,5.3,0,0,0,1.56-2.2,8.19,8.19,0,0,0,.22-2.72,4.34,4.34,0,0,0-2-2.69A5,5,0,0,0,424,253.48Z" transform="translate(-323.5 -219.5)"/>
        <path class="cls-1" d="M416.56,262.18a4.21,4.21,0,0,0-2.58,1.4,5,5,0,0,0-.29,4.8c.8,1.26,2.07,2.3,3.06,2.3a3.9,3.9,0,0,0,3.12-1.36,5.2,5.2,0,0,0,1-3.32,3.92,3.92,0,0,0-1.72-3.25A4.48,4.48,0,0,0,416.56,262.18Z" transform="translate(-323.5 -219.5)"/>
        <path class="cls-1" d="M424.66,270.69a3.66,3.66,0,0,0-2.74,1.26,4.38,4.38,0,0,0-1,3.46,3,3,0,0,0,.71,2.23,4.44,4.44,0,0,0,3,1.68,3.59,3.59,0,0,0,2.83-1.22,5.77,5.77,0,0,0,1.08-2.58,4.52,4.52,0,0,0-.54-2.83A8.14,8.14,0,0,0,426,270.9,5.61,5.61,0,0,0,424.66,270.69Z" transform="translate(-323.5 -219.5)"/>
        <path class="cls-1" d="M433.16,262.17a3.5,3.5,0,0,0-2.61.36,5.55,5.55,0,0,0-2,2.65,5.91,5.91,0,0,0,.32,3.18,5.49,5.49,0,0,0,2.23,2.16,5.24,5.24,0,0,0,2.65-.14,3.94,3.94,0,0,0,1.91-1.89,5.75,5.75,0,0,0,.38-3.25,7.89,7.89,0,0,0-1.31-2.34S433.67,262.05,433.16,262.17Z" transform="translate(-323.5 -219.5)"/>
      </g>
      <text class="cls-5" transform="translate(47.9 100.75)">G<tspan class="cls-6" x="7.75" y="0">A</tspan><tspan x="15.05" y="0">ME</tspan><tspan class="cls-7" x="30.6" y="0">R</tspan><tspan class="cls-8" x="37.16" y="0">’</tspan><tspan class="cls-9" x="39.55" y="0">S</tspan><tspan class="cls-10" x="0" y="14.4">P</tspan><tspan x="5.38" y="14.4">A</tspan><tspan class="cls-11" x="12.72" y="14.4">R</tspan><tspan class="cls-12" x="19.24" y="14.4">ADISE</tspan></text>
    </g>
  </g>
</svg>
