<svg xmlns="http://www.w3.org/2000/svg" xmlns:xlink="http://www.w3.org/1999/xlink" viewBox="0 0 515.91 740.09">
  <defs>
    <style>
      .cls-1 {
        isolation: isolate;
      }

      .cls-2 {
        fill: #d32027;
      }

      .cls-2, .cls-3, .cls-6, .cls-7, .cls-9 {
        stroke: #231f20;
        stroke-miterlimit: 10;
      }

      .cls-3 {
        fill: none;
      }

      .cls-4, .cls-5 {
        fill: #231f20;
      }

      .cls-5 {
        font-size: 22.12px;
        font-family: VinerHandITC, Viner Hand ITC;
      }

      .cls-6 {
        fill: #cca72c;
      }

      .cls-7 {
        fill: #262262;
      }

      .cls-8 {
        mix-blend-mode: saturation;
      }

      .cls-9 {
        fill: url(#radial-gradient);
      }
    </style>
    <radialGradient id="radial-gradient" cx="304.83" cy="265.27" r="55.68" gradientUnits="userSpaceOnUse">
      <stop offset="0" stop-color="#898b8e"/>
      <stop offset="0.02" stop-color="#929496"/>
      <stop offset="0.05" stop-color="#aaabad"/>
      <stop offset="0.09" stop-color="#d1d2d3"/>
      <stop offset="0.12" stop-color="#fff"/>
      <stop offset="0.21" stop-color="#fdfdfd"/>
      <stop offset="0.23" stop-color="#f6f7f7"/>
      <stop offset="0.24" stop-color="#f6f7f7"/>
      <stop offset="0.24" stop-color="#e4e5e5"/>
      <stop offset="0.26" stop-color="#bcbcbc"/>
      <stop offset="0.27" stop-color="#979696"/>
      <stop offset="0.29" stop-color="#787676"/>
      <stop offset="0.31" stop-color="#5d5a5b"/>
      <stop offset="0.33" stop-color="#484445"/>
      <stop offset="0.36" stop-color="#373334"/>
      <stop offset="0.39" stop-color="#2b2829"/>
      <stop offset="0.44" stop-color="#252122"/>
      <stop offset="0.57" stop-color="#231f20"/>
    </radialGradient>
  </defs>
  <title>Tattoo</title>
  <g class="cls-1">
    <g id="Maple_leaf">
      <path id="Maple_Leaf_Outline" class="cls-2" d="M306,40.5,303.75,33,298,48.75s-29,70.75-29.75,70.75-4.75,13.25-5.75,14-8,8.75-14.5,4.25-27.75-18.5-27.75-18.5L214,115.5l4,28,17,115.25a35.39,35.39,0,0,1-.5,23.5c-4.75,12.75-16.25-1.75-16.25-1.75l-35.5-52.25-16-23.25-5.25,25.25L159,242.5s0,5.5-4.75,8-1.5,2.5-15.25-.75-43.25-11.25-43.25-12S83,234,83,234l4.5,21.75,13.25,63s2,7.5,2,11.75a10.37,10.37,0,0,1-4,12.25c-7,5-24.75,14.75-24.75,14.75l7.75,9L155,444l25.5,26.75s9.75,7.5,9.5,13.75-4,25.25-4,25.25L180.25,535l87.25-13.25L285,519.5s4-3,9.5,1.25,4,3.25,4,13L296.75,596l-2.5,81.75h18.08l-2.83-151.5s2-8.25,9.5-7.75,56.75,8.5,56.75,8.5l52.75,8-8.25-34-2.5-10.75s1-12,7.75-18.5S464,432.5,464,432.5l42.75-45.75,27.25-29-25-16s-6.75-2.5-3.5-16L525.25,234,477,247.75,464.25,251s-10.5,5.75-14.75-6.75S441.75,206,441.75,206l-20.5,29.5L393,275.5l-7,8.75s-13.75,9.75-14.25-9l6.75-54.75,14.75-99.25,1-6.75L365.75,134l-6.5,4.25s-12,2.75-16.5-10.5S306,40.5,306,40.5Z" transform="translate(-52.61 -31.41)"/>
    </g>
    <g id="Banner">
      <g id="Banner-2" data-name="Banner">
        <g>
          <path class="cls-3" d="M283.33,721.59s-1.92-1.84,0,3.66-4.58,14.25-4.58,14.25l-9.5,10.25s-5,4.25,2.25,6.25,50.75,7.25,50.75,7.25,55.5,2.25,68.25,1.25S431,760,431,760l29.5-6,11.8-1.3s25.9-2.75,30.45-3a211,211,0,0,1,22.7,0,63.3,63.3,0,0,1,8.55,1s11,2.5,14.25,5.75" transform="translate(-52.61 -31.41)"/>
          <path class="cls-3" d="M57.25,700.5a11.9,11.9,0,0,1,.5,4c0,2.75,7.75,2.5,13.75,4S91,709,91,709c1.18.07,7.9-.83,17.12-2.2,6-.89,13.13-2,20.45-3.13l5-.79c19.49-3.08,39.19-6.33,43.44-7.14,17-3.25,32-5.25,48.25-8s45-3.75,45-3.75c7-1.25,27.5,2.25,37.75,5.25s4.75,8,4,12,2.5,10.5,2.5,10.5,8.25,12.25,9.25,16-3,4.75-3,4.75L319.5,729c-1.25-3.5-8.75-3.75-13.5-6-2.44-1.16-12.33-1.39-22.25-1.41H282.5c-9,0-17.73.14-20.75-.09-6.5-.5-29,4-33.75,4.25s-22.25,4.75-22.25,4.75l-21.75,3-30.5,5s-20.25,1.75-24,2.75-26.19,1.25-26.19,1.25-21.81.25-31.56-2S65,738,65,737s2.5-7.75,2-15.25-9.75-9.5-13.25-16.75,8.5-11,8.5-11c4.5-3.75,21-2,23-2s39,.25,44.75,0,23.5-2.75,23.5-2.75-12.5,11.5-15,12" transform="translate(-52.61 -31.41)"/>
          <path class="cls-3" d="M286.75,725s1.75,2.75,19.25,5.75S370.25,734,380.25,732s39-3.75,54.75-8.5c0,0,30.25-4.25,33.75-5.75s23-5.25,28.75-4.63c0,0,31.5-2.37,39-1.87s22.25,1.87,22.25,1.87,13.75,3.22,7.75,8.17-11.75,6.21-11.75,12.21-1.75,15-.25,18.5,4.25,9.76-3,12.76A80.28,80.28,0,0,1,519.25,771c-15,0-30-1-35.25-1.25S469.25,767,469.25,767s5,1.16,5.75-6.75-4.48-7.35-4.48-7.35" transform="translate(-52.61 -31.41)"/>
        </g>
        <g>
          <path class="cls-4" d="M120.89,712.33l.08,0,.21,0,.88.64.66.72-.87,1-.1.21-.64.27h-.33l-.31-.24-.16,0-.52,2-.27.51,0,.51-.2.71-.07.54-.12.32v.75l-.07.4a1.63,1.63,0,0,1-.19.36l0,.26-.06.49.11.28a4.08,4.08,0,0,1-.16.76l.08.41-.07.54.1.08,0,.28.18.18,0,.38.18.82h-.05l0,.62a1.88,1.88,0,0,0,.45.69l-.07.18.18.23.21,1-.19.28,0,.3-.08.37h-.11l-.3.73H119l-.24.47-.47.54-.47-.83-.1-.89-.21-.77v-.37l-.59-.87.09-.27-.15-.29.07-.12-.34-.12-.11.13a1.91,1.91,0,0,0-.38-.56H116l-.29-.85-.42-.4-.24-.48a1.74,1.74,0,0,1-.22-.51l-.54-.52-.16-.31v-.26l-.16-.23-.13-.05-.14-.34h-.1l-.17-.42-.3-.4a1.29,1.29,0,0,1-.15-.39l-.2.08-.17.66,0,.2a8.06,8.06,0,0,1-.09,1l-.16.14.13.35.22.15,0,.51.06.57-.34.68.08.46-.07.34.14.33-.06.12.07.32-.11.48,0,.31-.13.27-.06.7,0,.21-.06.1-.23,1.67-.09.31-.3.24,0,.12-.6.43-.33-.08-.13-.41.18-.34-.11-.13-.24,0v-.11l.24-.35-.11-.41.28-.12.32-.72.06-.63,0-.26.17-.3,0-.46.23-2.86-.05-.16,0-.46.19-.48-.1-.3.15-.43v-.28l.05-.42-.06-.2.06-.63-.46-1.07a.87.87,0,0,1,.22-.32l-.19-.57,0-.37.16-.06v-.33l-.73.08-.69.4-.17-.11-.28,1.08-.89,1.32-.51.36L108,721l0-.41.18-.12-.06-.22-.13,0,0-.26.17-.22,0-.21.34.11.07-.16-.14-.14a4,4,0,0,1,.31-.65l.43-.2v-.37l.2,0,.14-.25a.55.55,0,0,1,.17-.15l.33-.19,0-.09.24-.06a.47.47,0,0,0,.25-.16,1.22,1.22,0,0,1,.52-.26l.41-.13.9-.82.2-.35.47-.3.43-.11.29.57a1.69,1.69,0,0,0-.12.85l.45,1.78.18.41,0,.3.23,0,.08.46.42.37v.3l.09.1.85,1.44.93,1.78.23.25,0,.14.18.21.26,0v-.27l.12-.06,0-.17.18-1.39V722a5.05,5.05,0,0,1,.1-.72l.31-.35,0-.26.15-.43,0-.31a2.47,2.47,0,0,0,.2-.86.52.52,0,0,0,.13-.19l.07-.15.31-1.76a.86.86,0,0,1,.14-.34l0-.6.14-.18.15-.5.07-.47.13-.26a1.56,1.56,0,0,0,.12-.45l.15-.06.33-1.13.17-.24h.09c.05-.14.1-.21.14-.22Z" transform="translate(-52.61 -31.41)"/>
          <path class="cls-4" d="M126.85,713.52l.22,0,.31.37a1.75,1.75,0,0,1,.31.86l.34.45v.3l.42.6v.26l.16.3,0,.42.28.28.16.51.37,0,.39.18a.66.66,0,0,1,.17.12l.24.24v.7l.14.14v.42l.1.3-.15.43.11.36-.22.41a.68.68,0,0,0-.06.3l.36.37-.3.25-.2.55-.29.13a.86.86,0,0,0-.28.19l-.29.3.1.15a3.61,3.61,0,0,0-.24.75l-.14.13-.07.54-.08.05-.12.39a3.9,3.9,0,0,0-.41.71l0,.05-.2.45-.17,0,.11.16-.55.91-.79,1.08-.16,0-.18.33a1.56,1.56,0,0,0-.36.32l-.23-.15-.06.05-.35-.1a1.48,1.48,0,0,1-.42-.23c-.14-.15-.25-.23-.31-.23l-.16-.33-.16,0-.06-.2-.23-.09,0-.15.14-.13-.1-.1,0-.14-.16-.31-.11-.17a4.89,4.89,0,0,1-.19-.64h-.1v-.32l-.07-.32,0-.22-.07,0,0-.83-.16-.51.09-.11-.05-.15,0-.53-.1-.32.12-.35-.06-.54.09-1.07h0l.06-.25-.06-.09.08-.08-.06-.2.22-1.11,0,0,0-.21v-.32l.08-.05,0-.21,0-.12.16-.06-.07,0,.09-.13-.08-.4.11-.14.08-.43h0l0-.25a1.27,1.27,0,0,1,.16-.34l0-.2.16-.06v-.11l.4-.72,0-.25.2-.15V715a2,2,0,0,1,.29-.36.77.77,0,0,1,.36-.5l.57-.38.45,0Zm-1,2.12-.32.34-.22.6-.2.3a4.5,4.5,0,0,0-.25.65l-.1.54-.11.41a2.33,2.33,0,0,0-.07.61l-.09.18,0,.46-.19.27,0,.38,0,.2-.19.3V721l-.22,1,.1.36-.13.54.1.08,0,.38.1.15L124,724l0,.84.17.07-.25.24.15.3h.09v.42l.06.57a.84.84,0,0,1,.26.3l0,.16a5,5,0,0,1,.27.65l.16.1a2.46,2.46,0,0,1,.34.38l.36-.15.15.25.3-.23,0-.12.19-.07,0-.38h0l.06-.22.29,0a2.38,2.38,0,0,0,.25-.65l.15-.08,0-.31.2-.71.23-.19v-.25l.35-.24-.2-.19,0-.25a2.12,2.12,0,0,0,.12-.55l-.36-.1a1,1,0,0,1-.28-.24l-.36.13.16-.28.32-.24.14-.18a.75.75,0,0,0,.23-.3,1.36,1.36,0,0,0,.06-.35l.12-.13-.15-.19,0-.32-.07-.34,0-.12-.18-.24,0-.16.14-.13,0-.15h-.1l-.13-.52v-.27l-.22-.07-.07-.37.08-.1a3.67,3.67,0,0,0-.31-.83h.1l-.23-.28,0-.16a3.39,3.39,0,0,1-.34-.75l-.14-.14,0-.41-.09-.2-.09-.06Z" transform="translate(-52.61 -31.41)"/>
          <path class="cls-4" d="M141.9,711.55l.56-.52.35-.12,0,.7-.28.61-.53.43-.07.3-.53.38-.07.22-.44.27-.62.16-.27.12-.22-.18-.23.14,0-.38-.42,0-.12.08-.24-.09-.24.14-.17-.1-.24.14a5.54,5.54,0,0,1-.17.74l-.12.38v.69l-.38,1.57,0,.17-.15.34a1.1,1.1,0,0,0,0,.55l.06.54-.08.42-.16.43-.07.8.16.31,0,.74-.06.22.08.24-.1.17.08.09v.53l.05.15-.08.5,0,.48-.11.74,0,.87-.37,1.52,0,.17.15.23-.21.31a1,1,0,0,1-.31.17v0l-.43.53-.26,0-.1-.26-.37.11-.31-.2.14-.68.11-.06.32-.89a.88.88,0,0,1,.22-.6l0-.57,0-.75.15-.68.14-.85-.21-.62,0-.59.09-.68a4,4,0,0,1,0-.89,1.41,1.41,0,0,1,.15-.41l-.2-.23.09-.27-.09-.19a2.1,2.1,0,0,1,.21-.72l0-.25.18-.13-.07-.36-.08.12.08-.38-.11-.19.1-.76-.2-.18v-.09l.16-.19,0-.27-.14-.12.1-.29.15-1.1-.26.07-1.26.51-.45,0-.13.23-.37.15.1.41-.49.54-.25.4-.13-.05-.14.2a1.14,1.14,0,0,0-.12.41l-.43.2,0,.22-.13,0-.2-.35-.53-.47-.3-.76,0-.21.23,0a3.2,3.2,0,0,1,.5-.73l.08-.45.43-.18,0-.16.28-.08,0-.24.6-.11.24-.07.21.07.06-.21.45,0,.16-.08.28,0-.06,0,.23-.2.29,0,.41,0,.13-.24.17,0,.56-.13,0-.14.16,0,.17.12.2,0,.06.06.43-.16.49-.27.15.15.4-.09.33.05.53.15,0-.09.28-.4.62,0a2.75,2.75,0,0,1,.79-.29l.36,0Z" transform="translate(-52.61 -31.41)"/>
          <path class="cls-4" d="M152.28,710.55a2.28,2.28,0,0,0,.57.14l.23.6-.15.5-.41,1.88,0,.21-.23.14,0,.16h-.13a1.66,1.66,0,0,1,.2.61l-.13.06,0,.68-.16.32v.44l-.11.06.07.37L152,717l0,.41-.06.12,0,.37-.08.38,1,.1.08.08.43-.11a.49.49,0,0,0,.22-.11l.21-.23.36,0,.38-.32a3.18,3.18,0,0,0,.68-.4l.4.06.09.82-.23.59,0,.2-.26,0-.18.11-.26,0-.23.18-.12-.1-.14.3-.59.22-.33.29-.41,0-.46.22,0-.11-.27.14-.15.43.17,1.6-.07.17.17.36v.46l.12.36,0,.37.21.14.41,0,.33.08.1.41-.25.33,0,.32-.26.62,0,.37-.22.28,0,.33-.6.57a1.58,1.58,0,0,1-.17.38l-.17.22-.08.1-.54.31V728l.19-.19,0-.32.08-.11,0-.25-.26-.25.07-1.21-.05-.16,0-.37-.09-.21.11-.75-.2-.7,0-.21-.13-1.56v-.44l0-.1,0-.2-.23-.39,0-.27h-.38l0,.32-.53-.06-.16,0-.47.3,0,.17-.47.16-.25-.08,0,.12-.17,0-.55.19-.85.53-.08.25.18,1.69-.09.34.67.25,0,.46.06.21-.14.17,0,.47.09.48.1.08a1.13,1.13,0,0,1-.16.46l-.23,0,0,.15-.1.12a2.09,2.09,0,0,0-.18.48H147l-.17.29-.45-.06-.25,0-.21-.18,0-.23a1,1,0,0,1,.16-.32l0-.52-.12-.35v-.7l-.08-.41.06-.58-.09-.52,0,0,0-.3.08-.37,0-.21-.15-.26.06-.59-.23-.23-.27,0-.1.21-.14-.1a.54.54,0,0,1-.34.2l-.15.23-1,.36h-.1l-.11.23-.34-.18-.26.2-.12-.2.06-.3-.11-.11.05-.74.27-.2.06-.14.55-.22.3.06.1.1.33-.24h.33l.25-.07.25.06.06-.17.12-.06.07,0,.15-.12c0,.06.18.1.43.12l.09-.29-.17-.76a2.15,2.15,0,0,0,.21-.7l-.12,0,.13-.34-.24-.66,0-.79-.17-.81.11-.23-.07-.15.08-.38-.14-.7-.31.06a.67.67,0,0,0-.26.15,1,1,0,0,0-.24.34l-.16,0-.14.21a.59.59,0,0,1-.17.18l-.25.14.13.45-.11.55-.07-.32a5.65,5.65,0,0,0-.39.57l-.14-.1-.3.17,0,.14-.26.24,0,.16-.54-.15-.24-.28,0-.44.09-.59.35-.61.3-.2.2-.22a2.56,2.56,0,0,1,.4-.3l.07-.17.35-.13.07-.17.2,0,.33-.41.27,0,.07-.18.36,0,.29-.25a1.07,1.07,0,0,0,.18-.34l.19,0a.94.94,0,0,0,.28-.21V713l.24-.07.11-.22h.12l.19-.39.42-.25h.41a3.09,3.09,0,0,0,.47.53l.06.53-.06.22-.43.14,0,.49-.12,1-.08,1,0,.31-.13.23.07.37-.1.21-.1,1.75-.13.31,0,.58.12.19.31-.08.41.11.4-.16.91-.19.22,0,.08.08.55-.22.08-.11.31,0,.37.06.23-.22-.13-.58.17-.39-.14-.34.07-.54-.08-.5,0-.37-.11-.32,0-.29a1.25,1.25,0,0,1,.15-.38l-.21-.28.14-.64,0-.37-.14-.52.07-.18-.1-.15.19-.6.06-.05V712l.11-.11.05-.23.23-.16.43-.58.28,0Z" transform="translate(-52.61 -31.41)"/>
          <path class="cls-4" d="M162.72,709.26l.16.06.08.46.39.12,0,.16-.23.24,0,.3a4.17,4.17,0,0,0-1,.85,1.92,1.92,0,0,1-.39.57l-1,.77.15.2-.18.71a3.64,3.64,0,0,1-.08.74l-.07.38-.12,2.06,0,1.95-.13,0,.16,1.51h-.09l.11.24v.26l.3,1.75,0,.16.19.18.84-.18.22.08a1.18,1.18,0,0,1,.33.17q-.36.88-.55.92l0,.21-.26,0-.2.48-.19.07-.09.2a2.56,2.56,0,0,1-.33.37l-.22,0-.42.25-.7.18-1.3.46-.3.2-.27-.19-.19.11-.12-.61.46-.67.07-.16a1.17,1.17,0,0,1,.25-.25l0-.26,0,.1.36-.37.52-.19.2,0,.25-.17a1.54,1.54,0,0,0,.35-.38l0-.3-.14-.19,0-.95-.09-.16.08-.42-.12-.62-.12-.1.12-.32-.09-.31.06-.38-.12-.2a2.68,2.68,0,0,1,.26-.72l-.21-.28.11-.59a.82.82,0,0,0-.28-.34l.19-.48-.36-.19.13-.36-.12-.43v-.58l0-.29.17-.35a4,4,0,0,1,.08-.85l.11-.12-.22-.55.06-.38-.28-.11-.51.26-.22.33a1.15,1.15,0,0,0-.21.23l-.16,0-.18-.3a3.58,3.58,0,0,1-.25-.65l.12-.41a.53.53,0,0,1,.45-.32l0-.17.12-.06.09-.21.17,0a3.28,3.28,0,0,0,.46-.54l.28-.08a2.09,2.09,0,0,1,.41-.37l.25,0v.07a1.38,1.38,0,0,1,.58.2l.28-.29,1.18-.08.21,0,.6-.8Z" transform="translate(-52.61 -31.41)"/>
          <path class="cls-4" d="M176.06,706.42l.08,0,.21,0,.88.64.66.72-.87,1-.1.21-.64.27h-.33l-.31-.24-.16,0-.52,2-.27.51,0,.51-.2.71-.07.54-.12.32v.75l-.07.4a1.62,1.62,0,0,1-.19.36l0,.26-.06.49.11.28a4.13,4.13,0,0,1-.16.76l.08.41-.06.54.1.08,0,.28.18.18,0,.38.18.82h-.05l0,.62a1.88,1.88,0,0,0,.45.69l-.07.18.18.23.21,1-.19.28,0,.3-.08.37h-.11l-.3.73h-.32l-.24.47-.47.54-.47-.83-.1-.89-.21-.77v-.37l-.59-.87.09-.27-.15-.29.07-.12-.34-.12-.11.13a1.92,1.92,0,0,0-.38-.56h-.12l-.29-.85-.42-.4-.24-.48a1.71,1.71,0,0,1-.22-.51l-.54-.52-.16-.31v-.26l-.16-.23-.13-.05-.14-.34h-.1l-.17-.42-.3-.4a1.31,1.31,0,0,1-.15-.39l-.2.08-.17.66,0,.2a8.05,8.05,0,0,1-.09,1l-.16.14.13.35.22.15,0,.51.06.57-.34.68.08.46-.07.33.14.33-.06.12.07.32-.11.48,0,.31-.13.27-.06.7,0,.21-.06.1-.23,1.67-.09.32-.3.24,0,.12-.6.43-.33-.08-.13-.41.18-.34-.11-.13-.24,0v-.11l.24-.35-.11-.41.28-.12.32-.72.06-.63,0-.26.17-.3,0-.46.23-2.86-.05-.16,0-.46.19-.48-.1-.3.15-.43v-.28L167,716l-.06-.2.06-.63-.46-1.07a.87.87,0,0,1,.22-.32l-.19-.57,0-.37.16-.06v-.33l-.73.08-.69.4-.17-.11-.28,1.08-.89,1.32-.51.36-.29-.55,0-.41.18-.12-.06-.22-.13,0,0-.26.17-.22,0-.21.34.11.07-.16-.14-.14a4.09,4.09,0,0,1,.31-.65l.43-.2v-.37l.2,0,.14-.25a.57.57,0,0,1,.17-.15l.33-.19,0-.09.24-.06a.48.48,0,0,0,.25-.16,1.22,1.22,0,0,1,.52-.26l.41-.13.9-.82.2-.35.47-.3.43-.11.29.57a1.7,1.7,0,0,0-.12.85l.45,1.78.18.41,0,.3.23,0,.08.45.42.37v.31l.09.1.85,1.44.93,1.78.23.25,0,.14.18.21.26,0V718l.12-.06,0-.17.18-1.39V716a5.05,5.05,0,0,1,.1-.72l.31-.35,0-.26.15-.43,0-.31a2.48,2.48,0,0,0,.2-.86.52.52,0,0,0,.13-.19l.07-.15.31-1.76a.83.83,0,0,1,.14-.34l0-.61.14-.18.15-.5.07-.47.13-.26a1.56,1.56,0,0,0,.12-.45l.15-.06.33-1.13.17-.24h.09c.05-.14.1-.21.14-.22Z" transform="translate(-52.61 -31.41)"/>
          <path class="cls-4" d="M183.56,707.68l.21,0,.21.07.44-.09.26.08,0,.13,0,0,.11.25H185l.33.54-.07.29.09.5.06.53-.17.29.14.29.23-.11.2,0,0,.25-.07.33.45.95-.1.16a1.66,1.66,0,0,1-.39.31l0,.38.08.41-.12.37a3.46,3.46,0,0,0-.56.48l0,.22-.35-.11a1.45,1.45,0,0,0-.26.62l-.4.09-.2-.35,0-.33-.21-.44.16-.75-.07-.32v-.58l-.06-.57v-.93l-.23-.68-.12-.19h-.07l-.26-.13-.45,0a2.14,2.14,0,0,0-.55.48h-.08L180.77,712l-.11.5-.11.1v.28l-.35.61,0,.8-.15.28a.94.94,0,0,0-.11.32l-.05.43-.19,0,0,.46-.11.13,0,1-.2.28v.32l.1.25-.08.45.15.82-.16.22,0,.42.17.4.09.52.56,1,.16.36.48.27-.29,0,0,.32.37.05.81-.18.12,0a1.8,1.8,0,0,0,.4-.42h.09l.15-.48.6-.51.15-.19a2.18,2.18,0,0,1,.41-.33v-.12l.28-.12a.79.79,0,0,1,.21-.42.6.6,0,0,1,.37-.27,2.19,2.19,0,0,1,.33-.74l-.07-.61.63-1,.25-.14.6-.64.23-.07.31.24.1-.24.38.19-.15.85-.15.06.3,2.44.1.15.06.58-.09.3.09.52-.07.18.05.5-.26,1.55-.09,1-.09.27,0,.2-.1.34a2.81,2.81,0,0,0-.22.6l-.06-.11,0,.16-.25.28-.1.34-.13.23-.12.48-.2.38-.1.34a3.61,3.61,0,0,0-.41.67l-.31.15.07.3a1.12,1.12,0,0,1-.36.32l0,.14,0,.2-.3.2-.15.39-.16.06,0,.23-.85.76-.14.23-.13,0-.27.49-.16,0-.26.28-.08.49-.25.12h-.29l-.49.38-.25-.13-.21.44-.19.06-.11-.09-.19.16a.49.49,0,0,1-.22.11l-.29.06-.23-.3.11-.47.08,0,.1-.21.09,0a1.21,1.21,0,0,0,.42-.25l0,.06.15-.13h.12a1,1,0,0,1,.37-.33l.31-.2.17,0,.1-.18.34-.19.74-.61.22-.33.35-.24.14-.18.15-.13.53-.72v-.11l.45-.73.19-.22,0-.33.46-.76,0-.28.43-1.16,0-.17.17-.11.17-1.26-.11-.71.13-.3a3.72,3.72,0,0,0-.33-1.21l.07-.87.06-.05-.17-.4-.22-.14-.27-.76-.17,0a1.27,1.27,0,0,0-.29.52l-.35.13-.13.27-.15.08-.11.23-.83,1-.8.67-.1.17-.61.39-.1-.11-.53.18-.31-.18-.12-.26-.18.18-.42-.37-.08-.41-.21-.11a1.17,1.17,0,0,1-.29-.32V722l-.31-.34,0-.27-.22-.62.26-.24-.14-.39-.17-.08,0-.27.19-.64-.23-.3.06-.42.2-.18-.19-.29,0-.16.14-.5-.08-.41.16-.74L179,716l-.06-.28.31-1.6h.12l.07-.58.18-.29a.76.76,0,0,0,.12-.32l-.12-.25a1.63,1.63,0,0,0,.21-.44l.08-.05,0,0,0-.27a1.71,1.71,0,0,0,.38-1l.36-.52.47-.58.06-.22c.11,0,.27-.21.48-.51l0,0a4.12,4.12,0,0,1,.54-.68l.49-.3.07-.13.2-.07.23-.23Z" transform="translate(-52.61 -31.41)"/>
          <path class="cls-4" d="M199,705.37l.16.06.08.46.39.12,0,.16-.23.24,0,.3a4.2,4.2,0,0,0-1,.86,2,2,0,0,1-.39.57l-1,.77.15.2-.18.71a3.59,3.59,0,0,1-.08.74l-.07.38-.12,2.06,0,1.95-.14,0,.16,1.51h-.09l.11.24v.26l.3,1.75,0,.16.19.18.84-.18.22.08a1.18,1.18,0,0,1,.33.17c-.24.59-.42.9-.55.92l0,.21-.26,0-.2.49-.19.07-.09.2a2.57,2.57,0,0,1-.33.37l-.22,0-.42.25-.7.18-1.3.46-.3.2-.27-.19-.19.11-.12-.61.46-.67.07-.16a1.18,1.18,0,0,1,.24-.25l0-.26,0,.1.36-.37.52-.19.2,0,.25-.17a1.55,1.55,0,0,0,.35-.38l0-.3-.14-.19,0-.95-.09-.16.08-.42-.12-.62-.12-.1.12-.32-.09-.31.06-.38-.12-.2a2.66,2.66,0,0,1,.26-.72l-.21-.28.11-.59a.83.83,0,0,0-.28-.34l.19-.48-.36-.19.13-.36-.12-.43v-.58l0-.29.17-.35a4,4,0,0,1,.08-.85l.11-.12-.22-.55.06-.38-.28-.11-.51.26-.22.33a1.22,1.22,0,0,0-.21.23l-.16,0-.18-.3a3.58,3.58,0,0,1-.25-.65l.12-.41a.53.53,0,0,1,.45-.32l0-.17.12-.06.09-.21.17,0a3.27,3.27,0,0,0,.46-.54l.28-.08a2.12,2.12,0,0,1,.41-.37l.25,0v.07a1.4,1.4,0,0,1,.58.2l.28-.29,1.18-.08.21,0,.6-.8Z" transform="translate(-52.61 -31.41)"/>
          <path class="cls-4" d="M207.61,703.5l.23.19.32-.08.41.49,0,.2.24.23.18.51,0,.33H209l.07,1.77-.18.33-.33.26-.34.71-.34.15-.28.45-.47-.23-.17-.4.16-.31-.16-.36.15-.55a1.17,1.17,0,0,0-.18-.51l-.44.12-.34-.12-.51.21.08.25-.33.44-.16,0-1.54,1.53-.25.4-.21.07,0,.22-.43.21,0,.11-.3.19-.65.79-.1.17.19.13a1.47,1.47,0,0,1,.27.35l.18-.18.14.19.3-.19.26.13.45-.09,1.4-.1.15.2.37,0,.31.24.49-.28.19,0,.2.14.23,0,.17.15.25,0,.14.14.14,0a.79.79,0,0,1,.28.2l.16,0a1,1,0,0,1,.32-.2l.26.25.15.28.76.51.76.7-.12.39.31.29-.11.79,0,.74-.14.4a4.59,4.59,0,0,0-.14.67l-.35.3,0,.28L208.43,719l-.28,0v.21l-1.55.87-.22.27-.49.05-.1.17-.25,0-.09.18-.26-.08-.66.39,0,0-.32.08-.55.23-1,0-.42.21-.58-.11h-.32l-.18-.1-.26-.18-.38-.55,0-.78.15-.06.14-.23.23-.18a2.07,2.07,0,0,1,.36-.5l.93-.1,0,.37,0,.14.14.14-.25.38a1.75,1.75,0,0,0-.11.41l.09.19.47.21.1-.27.31-.12.46.09H204l.3-.24.29,0,.38-.15.14-.13.32,0,.21-.08.71-.46.24-.09.18-.17a1.53,1.53,0,0,1,.47-.21l.11-.17.13,0,.67-.6.14-.54.36-.17,0-.29.12-.27-.08-.08.12-.66-.06-.25.06-.38-.27-.5,0-.42-.28-.59-.22-.09a1.52,1.52,0,0,0-.34-.49l-.43.16-.18-.4a1.34,1.34,0,0,0-.25-.26,1.37,1.37,0,0,1-.46-.15l-.25.4-.14-.15-.47-.09-.28-.3-.11.18-.24-.09-.14.22-.39-.16-.12.33-.42-.2,0,.25-.32,0-.09-.15-.38,0-.3.24h-.39a1.32,1.32,0,0,1-.33-.18l-.19.13-.17-.09v.2l-.49.12-.06-.11-.19.06-.36-.33-.12-.27a1,1,0,0,0-.24-.31,3.87,3.87,0,0,0,.31-.45h.09l.13-.39.16,0,.17-.31.4-.42.39-.57.23-.24.3-.19.25-.4.23-.18.24-.33.37-.36.32-.57.39-.35a.7.7,0,0,1,.26-.24l0-.16.47-.54.16,0,.18-.37a2.72,2.72,0,0,0,.4-.41l0-.17.18-.13,0-.09a8.3,8.3,0,0,0,.58-.76h.07v-.09h.13l0-.16.36-.2Z" transform="translate(-52.61 -31.41)"/>
          <path class="cls-4" d="M226.44,702.49,227,702l.35-.12,0,.7-.28.61-.53.43-.07.3-.53.39-.07.22-.44.27-.62.16-.27.12-.22-.18-.23.14,0-.38-.42,0-.12.08-.24-.09-.24.14-.17-.09-.24.14a5.37,5.37,0,0,1-.17.74l-.12.38v.69l-.38,1.57,0,.17-.15.34a1.1,1.1,0,0,0,0,.55l.06.54-.08.42-.15.43-.07.8.16.31,0,.74-.06.22.08.24-.1.17.08.09v.53l.05.15-.08.5,0,.48-.11.74,0,.87-.37,1.52,0,.17.15.23-.21.3a1,1,0,0,1-.31.17v0l-.43.53-.26,0-.1-.26-.37.11-.31-.2.14-.68.11-.06.32-.89a.88.88,0,0,1,.23-.6l0-.57,0-.75.15-.68.14-.85-.21-.62,0-.59.09-.68a4,4,0,0,1,0-.89,1.41,1.41,0,0,1,.15-.41l-.2-.23.09-.27-.09-.19a2.08,2.08,0,0,1,.21-.72l0-.25.18-.13-.07-.36-.08.12.08-.38-.11-.19.1-.76-.2-.18v-.09l.16-.19,0-.27-.14-.12.1-.29.15-1.1-.26.07-1.26.51-.45,0-.13.23-.37.15.11.41-.49.54-.25.4-.13-.05-.14.2a1.14,1.14,0,0,0-.12.41l-.43.2,0,.22-.13,0-.2-.35-.53-.47-.3-.76,0-.21.23,0a3.18,3.18,0,0,1,.5-.73l.07-.45.43-.18,0-.16.28-.08,0-.24.6-.11.24-.07.21.07.06-.21.45,0,.16-.08.28,0-.06,0,.23-.19.29,0,.41,0,.13-.24.17,0,.56-.13,0-.14.16,0,.17.12.2,0,.06.06.43-.16.49-.27.15.15.4-.09.33.06.53.15,0-.09.28-.4.62,0a2.72,2.72,0,0,1,.79-.29l.36,0Z" transform="translate(-52.61 -31.41)"/>
          <path class="cls-4" d="M231.22,701.62h.45l0,.38.34.17.1-.17.1.15.53.1.14-.22.15.25.3.13.2,0,.13.08.11-.15.21.11.91.11.1.07a4.69,4.69,0,0,0,.75-.16,1.91,1.91,0,0,0,.67.21l.08.25-.05.32.21.4-.67,1.39-.26.16-1,1.27-.34.35-1.08,1-.13.23-.17-.11-.37.37-.12.43.13.72.5,1.62,1.22,1.81.49.59-.07.31.38.23.25.19a.25.25,0,0,0,.14,0h.21l.38.49.2,0,.29.06v-.13l.23.07.16,0,.31.18.37.07.6.51h.1l.13.4.13.08,0,.21-.44.53-.38.13-.26-.06v-.06l-.49-.1-.65-.3-.46-.41-.29-.15a1.4,1.4,0,0,1-.37-.31l-.25,0-.27-.33-.2,0V715l-.35-.12-.1.08a2.49,2.49,0,0,1-.42-.44h-.36l-.09-.36-.22-.18h-.41l-.23-.3-.26-.09,0-.14.37,0a2.33,2.33,0,0,1-.69-.2l-.14-.29-.14-.05-.07-.34-.33-.33.24-.77-.14-.14h-.36l-.13-.41-.31-.18,0,.1-.24.14v.37l-.17.22,0,.3-.09.37.23.3-.13.06a4.44,4.44,0,0,1-.09,1l.06.21-.09.17.07.32h-.09l.11.5,0,.85.09.83-.07.18v.67l0,.53v.42l-.19.6V719a1.28,1.28,0,0,1-.13.41l.05.08-.16.73-.17.18-.13.52a.59.59,0,0,1-.11.23l-.21.29,0,.17-.25.07.06.26-.06.42-.59.7-.45-.05-.14-.14,0-.12h-.09l.06-.26-.28-.22,0-.48-.11-.08,0-.26a1.63,1.63,0,0,1,.21-.42l-.07-.13a2.23,2.23,0,0,1,.48-.84l.5.09.21,0,0,.16.14-.23,0-.25.18-.13,0-.3.06-.12.06,0-.05-.5h.13l0-.29-.15-.23.12-.34v-.84H229l0-.16.12-.1-.18-.42.15-.32.1-.06-.17-.63.08.06,0-.45-.07-.13,0-.55a1.4,1.4,0,0,1,.14-.38l-.11-.41h.1l-.11-.36h0l.13-2.32.21-.24-.08-.32.08-.52-.06-.2v-.33l.14-.13-.07-.34.09-.17-.08-.41.06-.33-.19-.23.18-.18,0-.17-.31-.17-.1-.25v-.07l-.14-.08.14-.3-.28.1-.17.31a1.49,1.49,0,0,1-.2.28l-.28.27-.32,0-.12-.26-.21-.08.24-.8.34-.37a1,1,0,0,1,.08-.31l.11-.08a3.13,3.13,0,0,1,.24-.44l-.24-.34.08-.32a3.24,3.24,0,0,0,0-.68l-.09-.16.09-.17.12-.06.06-.13a3.05,3.05,0,0,1,.43-.43l0-.12a4.35,4.35,0,0,1,.84-.55l.21.11.2-.11.11.08.18-.33.23,0,0-.16Zm1.89,2-.27.2,0,.25-.29.2-1.22.08-.36.13-.13.29.08.46-.27,1.19-.31.15,0,.2.22.19-.06.38.1,0-.24.44,0,.27-.15.52v.7l.31-.16.07-.17.12-.06.08-.47.17-.1a.86.86,0,0,0,.22-.27l.28-.08,0-.25.36-.28.24.26,1.11-1.11.3-.25.21-.29.15-.08a.64.64,0,0,0,.18-.21l.17,0,.06-.3.36-.32.18-.33.14-.16a1.64,1.64,0,0,0,.15-.36,1.13,1.13,0,0,0-.27-.43h-1.56l-.22-.14Z" transform="translate(-52.61 -31.41)"/>
          <path class="cls-4" d="M243.3,702.65h.32l.15.19.3.06.13.57-.12.13-.07.33-.62.75-.1.26-.8,3.89-.11.23.08.24-.11.13,0,.46-.09.6a5.09,5.09,0,0,0-.16.87l0,0-.09.31v1.81l.08.45v.69l.15.08.23-.07.07-.12.34-.19.21-.37.3-.26c.14-.18.24-.28.29-.29l.2-.39.16-.06.24-.44h.07l.43-.67.18-.22.11-.24a1.06,1.06,0,0,1,.25-.29l.21-.77h.1a1.12,1.12,0,0,1,.27-.54l.06-.29.31-.12.26-.56h.12l.16-.92.29,0,.14-.22-.07-.21.06-.23.12-1.89.13,0,.08-.38.37-.5.39-.36.18,0,.11-.24,0,0,.24-.22h.11l0-.16.22-.07h.13l.2.43-.21.31.2.24-.19,2.43-.17.45.09,3,.16,1.14.18.51-.07.47.41.79.26.17.13-.31.16,0,.19.23.25,0,.05.48-.26.29-.8,1.41-.61.73a1.43,1.43,0,0,1-.37-.42l-.37,0-.73-1.54.13-.39-.33-.34-.32-1.82v-.46l-.07-.62.05-.33-.14-.19v-.37l-.06-.2-1.12,2.11-.24.35,0,.16-.5.72-.15.08-.12.43-.12.06a1.6,1.6,0,0,1-.31.45l-.27.14-.13.23-.65.86-.29,0-.08.37a3.09,3.09,0,0,1-.68.49l-.11.23-.2,0-.31.25a2.55,2.55,0,0,1-.58.27l-.13.23-.37.08-.12-.15,0-.15-.14-.1.09-.76.15-.89-.12-.27.15-1-.26-.39.16-.55,0-.46.08-.38.11-.06,0-.58.13-.22,0-.17-.13,0-.09-.52.1-.17,0-.17.17-.31-.14-1.31.28.34v-.38a1.11,1.11,0,0,1,.06-.41l-.16-.25.16-.07.07-.54-.26,0,.05-.42.22.24-.08-.72-.14-.14-.47.14-.57.43-.15.17-.4-.21-.11-.52.43-.42.4-.46.83-.62.06-.1.58-.28.14-.38,0,0,.25-.24v-.11l.43-.21-.1,0,.29-.29Z" transform="translate(-52.61 -31.41)"/>
          <path class="cls-4" d="M261.58,699.57l.07.06-.46,1,0,.13-.36.29-.23-.09a1.19,1.19,0,0,1-.4.46l-.16,0-.13.33-.18.12-.33-.22-.12-.31-.57.23-.41-.17-.66.24-.66.07a4.48,4.48,0,0,1-.06,1l.06.11,0,.79-.07.58,0,.44-.07.12.07.2h1.42l.69-.27.63.15.28-.54.53-.06.09.19.3.13,0,.32-.13.19a2.59,2.59,0,0,0-.18.61l-.42.46-.28.21a.93.93,0,0,1-.43.14l-1-.05-.48.17-.36.2-.4,0-.21.09-.23,0-.06.05-.1.55-.06.47-.16.5-.05,1.71,0,1.81-.11.47.11,1.25.18.13.64,0,.28.17.36,0,.2.13.25-.13.28.09.78-.23.39,0,.07-.1.41,0,.34-.19h.34l.08-.1.7-.36-.17-.36.07-.25a8.29,8.29,0,0,1,.23-1.18h.45l.29-.29.5-.05a3.56,3.56,0,0,0,.73.71l.14.61,0,.2-.13.3,0,.21-.18.18,0,.25a1.28,1.28,0,0,1-.74.61l-.06.2a.46.46,0,0,1-.12.21l-.2.23-.94.15-.39.41-.64.07-.17-.11-.12.14-.18-.2-.73.38-.39,0-.1.17-.5-.06-.57.29-.29,0-.2.18-.5,0-.65.16-.26-.06-.11.47-.13.27,0,.16a2,2,0,0,1-.19.39v.11a2.2,2.2,0,0,0-.23.53l-.42.26-.5.54-.21-.51.06-.38-.06-.41.24-.6.29-.2.11-.63-.46-.11-.09.12-.24-.18-.78.08-.1.21h-.54l-.4-.66-.06-.52h0l-.07-.35.19-.12,0-.21.33-.43.41,0,.35-.22a2,2,0,0,1,.8.14l.37-.22a1.51,1.51,0,0,1,.7.13l.07-.3-.08-.27.08-2.25a6.42,6.42,0,0,1,.09-.87l-.08-.3.11-.43,0-2.15-.37-.62a2.53,2.53,0,0,1,.37-.71l-.13-.52.1-.06.13-.54-.08-.25.1-.38-.24-.34.07-.42-.11-.27,0-.41.1-.26-.19-.19-.06-.57-.63-.09-.17,0-1.07.45-.63-.07-.13.34-.33.08-.36-.63.08-.29.12-.06.08-.27.4-.53.31,0,.12-.42.13,0a1.6,1.6,0,0,1,.25-.33l.16,0,.24.07h.53l.56-.15.2.14v-.07l.09-.1.34.12v-.11l.56-.22-.09,0a1.71,1.71,0,0,1,.57-.39l0,.33.14.08.53-.24.15.19.68.06.18.15.13-.06.1.24.63-.32,0,.16h.31l.36-.2.91.13.69-1,.2-.13.3,0,.24.16.07.34-.26.63Z" transform="translate(-52.61 -31.41)"/>
        </g>
        <text class="cls-5" transform="translate(265.62 725.52) rotate(-4.72) scale(0.63 1)">EVERYTHING IS PERMITTED</text>
      </g>
    </g>
    <g id="Tattoo_Symbol">
      <g>
        <path id="Symbol_Outline" data-name="Symbol Outline" class="cls-6" d="M306,108,191,389s-9,31.5-33,45.5c0,0-8.5,9-26,13,0,0-21.25,2-26.75,0s-26-8.5-27.75-12,10.75,27,10.75,30.25,1.5,35,.25,41.75c0,0-2.25,19.75-5,25,0,0-2,9-3.25,9.25s13-5.25,22.25-1.75,17.75,6.5,45,32c0,0,26.08,18.75,44.17,26.75s50.58,22.5,70.58,25.5l20,3S276,625,269,623a270.77,270.77,0,0,1-37.5-14.75c-12.56-6-31.2-15.13-48.74-33.2-8.58-8.85-13.17-13.69-15.76-22-4-12.9-.32-24.83,4.5-40.5A158.15,158.15,0,0,1,184,483l41.5-92.25L270.25,268l22.5-63s2.5-10.25,5.25-3,34.75,85.75,34.75,85.75S388,419.75,388,420.5s37,88,37,88,11.25,15.25,6.25,34.75c0,0-.75,20.75-10.5,30.5a61.21,61.21,0,0,1-20.25,21.5c-14,9-41,20-48,23.25s-27,7-27,7,5.75,2.25,31-4.25S420,597.5,420,597.5s35.75-19.75,42.5-26.25,22-21.5,26.5-24.5,33.5-11.75,39-5.25l-5.75-16.75a80.8,80.8,0,0,1-3.75-22.25c-.5-13.25.25-31.25,3-36.25,0,0,8-30.5,11-30,0,0,.25-1.75-4.75,1.25S511,441.25,511,441.25s-9.5.75-26-1-41.75-12.5-54.75-31.25S405,352.75,405,352.75L352.25,223.5,309.75,119Z" transform="translate(-52.61 -31.41)"/>
        <path id="Under_symbol" class="cls-6" d="M300,629.67l3.33-6.33s.67-3,2.67,3.17,9.67,16.83,22.67,20.17S354.33,651.33,374,649s52-10,85-29.33,60.61-38.34,73.5-56.67l10.5-9.67s-9,13-10.5,14.33S511.33,591,500.67,599.33,459,630,448.33,636,417,652.33,402,657.33s-38.33,13-72.33,15-89.33-5.67-105-10-48.33-17.67-71-33-55.33-40.67-67.67-55S69.67,556,69.67,556L67,553.33S66.66,552,77.33,562s33.33,29,42,34.67,31.86,24,45.93,29c0,0,29.07,15,55.4,19.33s44,7.67,63.67-1.67C284.33,643.33,295.67,640,300,629.67Z" transform="translate(-52.61 -31.41)"/>
      </g>
    </g>
    <g id="Wolf">
      <path id="Wolf_Silouette" class="cls-7" d="M233.92,609.17s11.07-4.31,12.45-4.11,11.58-11.67,12.56-13.85,4.91-6.53,4.91-6.53.2-4.94,2.75-6.53,4.32-2.77,4.12-3.36.39-4.94,1.57-4.55,2.23-1.06,2-1.43-.74-1.78.88-1.63,2.36-1.19.74-2.52.49-4.3.91-3.86a13.13,13.13,0,0,0,2.18,1.34v-5.79s3.24-9.2,4.12-9.35,1.13-2.87,1.13-2.87l-2.16-5.54,5.3-2.77V530.5c0-.59,2.55-10.88,4.52-10.88a3.13,3.13,0,0,0,2.75-1.78l1.77-4.55s0-4,8.64-9.49,15.51-9.49,16.29-11.87c0,0,5.3-6.13,3.14-9.3s-4.52-2.57-8.25-2.37c0,0-5.89,2-5.3-1.58s5.69-16.22,5.69-16.22,1.57-2.18.79-7.12-1.57-8.9-1.57-8.9-1.18-4.55-4.91-3.36-1.18,1.19-5.69,3-14.13,4.75-14.33,5.93c0,0-3.14,1-3.14,2.77l-13,2.57s-5.89-3-8-3-16.88,2-16.88,2-11.74,1.58-16,3-3.85,1-6.4,2A40.85,40.85,0,0,0,221,465s-3.73,3-5.89,3-5.3-1-8.44,3.76-10,5.54-10,5.54-6.09,2-6.28,1-10.72.74-11.35,2.22-6.52.75-.82,7.87,8.25,10.88,8.25,10.88,3.34,3.56-.79,4.75c-3.88,1.12-6.61,4.62-9.92,6.92-2.93,2-6.5,7-9.32,20a33.61,33.61,0,0,0-1.75,10,34.68,34.68,0,0,0,4.63,17.84,143.56,143.56,0,0,0,64.58,50.47Z" transform="translate(-52.61 -31.41)"/>
    </g>
    <g id="Moon" class="cls-8">
      <path id="Moon_Outline" class="cls-9" d="M307,224.52,298,202s-2.19-6-4.25,0-32,89.28-32,89.28,22.36,60.31,86.13,32.68" transform="translate(-52.61 -31.41)"/>
    </g>
  </g>
</svg>
